{"title":"Once.I.Was.a.Beehive.2015.WEBRip.480p.x264.AAC-VYTO [P2PDL]","uid":12926803,"size":429526448,"categoryP":"video","categoryS":"movies","magnet":"?xt=urn:btih:a8cd6bbcaf0747133e8fcda8b768b42cd25db4ee&amp;dn=Once.I.Was.a.Beehive.2015.WEBRip.480p.x264.AAC-VYTO+%5BP2PDL%5D&amp;tr=udp%3A%2F%2Ftracker.leechers-paradise.org%3A6969&amp;tr=udp%3A%2F%2Fzer0day.ch%3A1337&amp;tr=udp%3A%2F%2Fopen.demonii.com%3A1337&amp;tr=udp%3A%2F%2Ftracker.coppersurfer.tk%3A6969&amp;tr=udp%3A%2F%2Fexodus.desync.com%3A6969","seeders":0,"leechers":1,"uploader":"VYTOP2PDL","files":7,"time":1449478840,"description":"____    ____ ____    ____ .___________.  ______   \r\n     /   /      /   / |           | /  __    \r\n    /   /      /   /  `---|  |----`|  |  |  | \r\n        /     _    _/       |  |     |  |  |  | \r\n       /        |  |         |  |     |  `--'  | \r\n    __/         |__|         |__|      ______/  \r\n                                                  \r\nPresenting Small Encodes with quality for years!\r\n                                                                                                   \r\n                                                                                                   \r\n\r\nOnce.I.Was.a.Beehive.2015.WEBRip.480p.x264.AAC-VYTO\r\n\r\n\r\nGenre:  Comedy, Drama, Family     \nhttp://www.imdb.com/title/tt4002772/\r\n\r\n\r\nGeneral\r\nFormat                         : MPEG-4\r\nFile size                      : 401 MiB\r\nDuration                       : 1h 58mn\r\nOverall bit rate               : 474 Kbps\r\n\r\nVideo\r\nFormat                         : AVC\r\nBit rate                       : 439 Kbps\r\nWidth                          : 720 pixels\r\nHeight                         : 400 pixels\r\nDisplay aspect ratio           : 16:9\r\nFrame rate mode                : Constant\r\nFrame rate                     : 23.976 fps\r\nBit depth                      : 8 bits\r\nStream size                    : 372 MiB (93%)\r\nWriting library                : x264\r\n\r\nAudio\r\nFormat                         : AAC\r\nBit rate mode                  : Variable\r\nBit rate                       : 32.0 Kbps\r\nChannel(s)                     : 2 channels\r\nChannel positions              : Front: L R \r\nSampling rate                  : 48.0 KHz\r\nStream size                    : 27.1 MiB (7%)\r\nLanguage                       : English\r\n\r\nSubtitle                       : Yes (English)\r\n\r\nScreen shots:\r\n \nhttp://ititli.com/CH \nhttp://ititli.com/CM \nhttp://ititli.com/CU \nhttp://ititli.com/Ch \nhttp://ititli.com/Cs \nhttp://ititli.com/CY \nhttp://ititli.com/C4 \nhttp://ititli.com/CK \nhttp://ititli.com/CV \nhttp://ititli.com/Ct \nhttp://ititli.com/CL \nhttp://ititli.com/Cd\r\n\r\n\r\nSend some love!\r\nFind us and join us!","torrent":{"xt":"urn:btih:a8cd6bbcaf0747133e8fcda8b768b42cd25db4ee","amp;dn":"Once.I.Was.a.Beehive.2015.WEBRip.480p.x264.AAC-VYTO+%5BP2PDL%5D","amp;tr":["udp%3A%2F%2Ftracker.leechers-paradise.org%3A6969","udp%3A%2F%2Fzer0day.ch%3A1337","udp%3A%2F%2Fopen.demonii.com%3A1337","udp%3A%2F%2Ftracker.coppersurfer.tk%3A6969","udp%3A%2F%2Fexodus.desync.com%3A6969"],"infoHash":"a8cd6bbcaf0747133e8fcda8b768b42cd25db4ee","infoHashBuffer":{"type":"Buffer","data":[168,205,107,188,175,7,71,19,62,143,205,168,183,104,180,44,210,93,180,238]},"announce":[],"urlList":[]}}